<svg width="14" height="14" viewBox="0 0 14 14" fill="none" xmlns="http://www.w3.org/2000/svg">
<path d="M13.9308 6.98633C13.9308 7.47852 13.5678 7.86406 13.1565 7.86406H12.3821L12.3991 12.2445C12.3991 12.3184 12.3942 12.3922 12.387 12.466V12.909C12.387 13.5133 11.9538 14.0027 11.419 14.0027H11.0319C11.0053 14.0027 10.9786 14.0027 10.952 14C10.9181 14.0027 10.8843 14.0027 10.8504 14.0027L10.064 14H9.4832C8.94842 14 8.51528 13.5105 8.51528 12.9062V10.5C8.51528 10.016 8.16925 9.625 7.74094 9.625H6.19227C5.76397 9.625 5.41793 10.016 5.41793 10.5V12.9062C5.41793 13.5105 4.98479 14 4.45001 14H3.09734C3.06105 14 3.02475 13.9973 2.98845 13.9945C2.95942 13.9973 2.93038 14 2.90134 14H2.51417C1.9794 14 1.54625 13.5105 1.54625 12.9062V9.84375C1.54625 9.81914 1.54625 9.7918 1.54867 9.76719V7.86133H0.774336C0.338772 7.86133 0 7.47852 0 6.98359C0 6.7375 0.072594 6.51875 0.24198 6.32734L6.44393 0.21875C6.61331 0.0273438 6.8069 0 6.97629 0C7.14567 0 7.33926 0.0546875 7.48444 0.191406L13.6646 6.33008C13.8582 6.52148 13.955 6.74023 13.9308 6.98633Z" fill="white"/>
</svg>
